<svg xmlns="http://www.w3.org/2000/svg" xmlns:xlink="http://www.w3.org/1999/xlink" version="1.1" x="0px" y="0px" viewBox="0 0 66 82.5" enable-background="new 0 0 66 66" xml:space="preserve" fill="#FFFFFF">
    <g><path d="M63.3,19.6l-1.1-0.3c0.3-1.2-0.4-2.4-1.5-2.7l-1.3-0.4l0.2-0.8c0.3-1.1-0.3-2.4-1.5-2.8L55.8,12c-0.5-0.1-1.1,0.2-1.2,0.7   L52.7,19c-11.7-7.7-27.8-7.7-39.5,0l-1.8-6.4c-0.1-0.5-0.7-0.8-1.2-0.7L8,12.7c-1.2,0.3-1.9,1.6-1.5,2.8l0.2,0.8l-1.3,0.4   c-1.1,0.3-1.9,1.5-1.6,2.7l-1.1,0.3c-1.3,0.4-2,1.7-1.6,3l1.5,5.2c0.3,1.2,1.6,2,3,1.6l1.1-0.3c0.4,1.2,1.6,1.8,2.7,1.5l1.3-0.4   l0.2,0.8c0.3,1.1,1.5,1.8,2.8,1.5l2.2-0.6c0.5-0.2,0.8-0.7,0.7-1.2l-1.4-5c1.7-1.3,3.5-2.5,5.5-3.4c0.1,0.1,0.1,0.1,0.2,0.2   l-5.3,15.9c-0.9,2.7,1.1,5.4,3.9,5.4h0.1c0,0,0,0,0,0c0.3,1.1,1,2,1.9,2.5c-0.2,2,1,3.7,2.7,4.2c0.3,1.9,2,3.5,4.1,3.5   c2.3,0,4.1-1.8,4.1-4.1V35.6c0-2.3-1.8-4.1-4.1-4.1c-2.1,0-3.8,1.6-4.1,3.5c-1.8,0.7-2.9,2.5-2.7,4.3c-1,0.6-1.7,1.5-1.9,2.5h-0.1   c-1.4,0-2.5-1.4-2-2.8l5.3-15.9c1.4-0.1,2.5-1.1,2.6-2.5c4.8-1.3,10.5-1.3,15.3,0c0.1,1.4,1.2,2.5,2.6,2.5L48.6,39   c0.5,1.4-0.6,2.8-2,2.8h-0.1c-0.3-1.1-0.9-2-1.9-2.6c0.2-1.9-1-3.6-2.7-4.3c-0.3-2.1-2-3.4-4.1-3.4c-2,0-4.1,1.4-4.1,4.1v14.3   c0,2.3,1.8,4.1,4.1,4.1c2,0,3.8-1.6,4.1-3.5c1.8-0.6,2.8-2.4,2.7-4.2c1-0.6,1.7-1.5,1.9-2.5h0.1c2.8,0,4.8-2.8,3.9-5.4l-5.3-15.9   c0.1-0.1,0.1-0.1,0.2-0.2c2,0.9,3.8,2,5.5,3.3l-1.4,5c-0.2,0.5,0.1,1.1,0.7,1.2l2.2,0.6c1.1,0.3,2.4-0.3,2.8-1.5l0.2-0.8l1.3,0.4   c1.1,0.3,2.4-0.3,2.7-1.5l1.1,0.3c1.3,0.4,2.6-0.4,3-1.6l1.5-5.2C65.3,21.3,64.5,20,63.3,19.6z M51.5,23.6   c-1.6-1.2-3.4-2.3-5.3-3.1c0,0,0,0,0-0.1c0-1.5-1.2-2.8-2.8-2.8c-0.9,0-1.7,0.4-2.2,1.1c-5.2-1.3-11.3-1.3-16.4,0   c-0.5-0.7-1.3-1.1-2.2-1.1c-1.5,0-2.8,1.2-2.8,2.8c0,0,0,0.1,0,0.1c-1.9,0.9-3.6,1.9-5.3,3.1l-0.7-2.5c11.2-7.8,27.1-7.8,38.3,0   L51.5,23.6z"/></g>
</svg>
